<svg xmlns="http://www.w3.org/2000/svg" viewBox="-0.5 -0.5 523 1074" style="background-color:rgb(15, 15, 15)" width="100%" xmlns:v="https://vecta.io/nano"><style><![CDATA[.B{pointer-events:all}.C{font-family:&quot;Helvetica&quot;}.D{text-anchor:middle}.E{stroke-width:2}.F{fill:url(#A)}.G{stroke:#626262}.H{fill:#c4c4c4}.I{font-size:12px}.J{fill:none}.K{pointer-events:stroke}.L{fill:#444}.M{stroke-miterlimit:10}.N{stroke:#444}.O{font-size:11px}.P{fill:#929091}]]></style><defs><linearGradient x1="0%" y1="0%" x2="0%" y2="100%" id="A"><stop offset="0%" stop-color="#2a2a2a"/><stop offset="100%" stop-color="#212121"/></linearGradient><path id="B" d="M406 454.76l-5-10h10z"/></defs><path fill="#0f0f0f" d="M0 0h523v1074H0z"/><rect x="106" y="177" width="200" height="40" rx="6" class="B E F G"/><text x="205.5" y="198.5" font-family="&quot;Helvetica&quot;" class="D H I">Client Sends Public Key</text><rect x="106" y="97" width="200" height="40" rx="6" class="B E F G"/><text x="205.5" y="118.5" font-family="&quot;Helvetica&quot;" class="D H I">Server Responds</text><rect x="106" y="17" width="200" height="40" rx="6" class="B E F G"/><text x="205.5" y="38.5" font-family="&quot;Helvetica&quot;" class="D H I">Client Initiates Connection</text><path d="M176 367l22.93-22.93q7.07-7.07 14.14 0l45.86 45.86q7.07 7.07 0 14.14l-45.86 45.86q-7.07 7.07-14.14 0l-45.86-45.86q-7.07-7.07 0-14.14z" class="B E F G M"/><text x="205.5" y="398.5" font-family="&quot;Helvetica&quot;" class="D H I">Public Key Matches?</text><rect x="106" y="257" width="200" height="40" rx="6" class="B E F G"/><text x="205.5" y="278.5" font-family="&quot;Helvetica&quot;" class="D H I">Server Authenticates</text><rect x="306" y="457" width="200" height="40" rx="6" class="B E F G"/><text x="405.5" y="478.5" font-family="&quot;Helvetica&quot;" class="D H I">Server Sends Challenge</text><g class="E M N"><path d="M266 397h130q10 0 10 10v37.76" class="J K"/><use href="#B" class="B L"/></g><text x="365.5" y="389.5" font-family="&quot;Helvetica&quot;" class="D O P">Yes</text><rect x="306" y="697" width="200" height="40" rx="6" class="B E F G"/><text x="405.5" y="718.5" font-family="&quot;Helvetica&quot;" class="D H I">Server Verifies Signature</text><rect x="306" y="617" width="200" height="40" rx="6" class="B E F G"/><text x="405.5" y="638.5" font-family="&quot;Helvetica&quot;" class="D H I">Client Sends Response</text><rect x="306" y="537" width="200" height="40" rx="6" class="B E F G"/><text x="405.5" y="558.5" font-family="&quot;Helvetica&quot;" class="D H I">Client Signs Challenge with Priv...</text><path d="M376 807l22.93-22.93q7.07-7.07 14.14 0l45.86 45.86q7.07 7.07 0 14.14l-45.86 45.86q-7.07 7.07-14.14 0l-45.86-45.86q-7.07-7.07 0-14.14z" class="B E F G M"/><text x="405.5" y="838.5" font-family="&quot;Helvetica&quot;" class="D H I">Signature Valid?</text><rect x="306" y="937" width="200" height="40" rx="6" class="B E F G"/><text x="405.5" y="958.5" font-family="&quot;Helvetica&quot;" class="D H I">Secure Session Established</text><rect x="306" y="1017" width="200" height="40" rx="6" class="B E F G"/><text x="405.5" y="1038.5" font-family="&quot;Helvetica&quot;" class="D H I">Data Transfer Using Session Key</text><g class="E M N"><path d="M406 497v27.76" class="J K"/><use href="#B" y="80" class="B L"/><path d="M406 577v27.76" class="J K"/><use href="#B" y="160" class="B L"/><path d="M406 657v27.76" class="J K"/><use href="#B" y="240" class="B L"/><path d="M406 737v27.76" class="J K"/><use href="#B" y="320" class="B L"/><path d="M406 897v27.76" class="J K"/><use href="#B" y="480" class="B L"/></g><text x="425.5" y="919.5" font-family="&quot;Helvetica&quot;" class="D O P">Yes</text><g class="E"><g class="M N"><path d="M406 977v27.76" class="J K"/><use href="#B" y="560" class="B L"/><path d="M206 57v27.76" class="J K"/><use href="#B" x="-200" y="-360" class="B L"/><path d="M206 137v27.76" class="J K"/><use href="#B" x="-200" y="-280" class="B L"/><path d="M206 217v27.76" class="J K"/><use href="#B" x="-200" y="-200" class="B L"/><path d="M206 297v27.76" class="J K"/><use href="#B" x="-200" y="-120" class="B L"/></g><rect x="66" y="937" width="200" height="40" rx="6" class="B F G"/></g><text x="165.5" y="958.5" font-family="&quot;Helvetica&quot;" class="D H I">Authentication Failed</text><g class="E M N"><path d="M146 397H36q-10 0-10 10v540q0 10 10 10h17.76" class="J K"/><path d="M63.76 957l-10 5v-10z" class="B L"/></g><text x="35.5" y="639.5" font-family="&quot;Helvetica&quot;" class="D O P">No</text><g stroke="#000" class="J M"><path d="M346 837H166v89.88" class="K"/><path d="M166 935.88l-4.5-9h9z" class="B"/></g><text x="205.5" y="849.5" fill="#000" font-family="&quot;Helvetica&quot;" class="D O">No</text></svg>